<?xml version="1.0" encoding="UTF-8" standalone="no"?>
<!-- Created with Inkscape (http://www.inkscape.org/) -->

<svg
   xmlns:dc="http://purl.org/dc/elements/1.1/"
   xmlns:cc="http://creativecommons.org/ns#"
   xmlns:rdf="http://www.w3.org/1999/02/22-rdf-syntax-ns#"
   xmlns:svg="http://www.w3.org/2000/svg"
   xmlns="http://www.w3.org/2000/svg"
   xmlns:sodipodi="http://sodipodi.sourceforge.net/DTD/sodipodi-0.dtd"
   xmlns:inkscape="http://www.inkscape.org/namespaces/inkscape"
   width="210mm"
   height="297mm"
   id="svg2"
   version="1.1"
   inkscape:version="0.48.4 r"
   sodipodi:docname="Documento nuevo 1">
  <defs
     id="defs4" />
  <sodipodi:namedview
     id="base"
     pagecolor="#ffffff"
     bordercolor="#666666"
     borderopacity="1.0"
     inkscape:pageopacity="0.0"
     inkscape:pageshadow="2"
     inkscape:zoom="0.24748737"
     inkscape:cx="619.78898"
     inkscape:cy="474.62557"
     inkscape:document-units="px"
     inkscape:current-layer="layer1"
     showgrid="false"
     inkscape:window-width="1366"
     inkscape:window-height="745"
     inkscape:window-x="-8"
     inkscape:window-y="-8"
     inkscape:window-maximized="1" />
  <metadata
     id="metadata7">
    <rdf:RDF>
      <cc:Work
         rdf:about="">
        <dc:format>image/svg+xml</dc:format>
        <dc:type
           rdf:resource="http://purl.org/dc/dcmitype/StillImage" />
        <dc:title></dc:title>
      </cc:Work>
    </rdf:RDF>
  </metadata>
  <g
     inkscape:label="Capa 1"
     inkscape:groupmode="layer"
     id="layer1">
    <g
       id="g3937"
       transform="translate(-11.428571,-11.428571)"
       inkscape:export-filename="E:\Escritorio\Lie.png"
       inkscape:export-xdpi="90"
       inkscape:export-ydpi="90">
      <rect
         ry="100"
         rx="100"
         y="252.34822"
         x="161.9046"
         height="500"
         width="500"
         id="rect3755"
         style="fill:#008080;fill-opacity:1;stroke:none" />
      <path
         id="rect3768"
         d="m 261.90625,252.34375 c -55.4,0 -100,44.6 -100,100 l 0,29.28125 500,0 0,-29.28125 c 0,-55.4 -44.6,-100 -100,-100 l -300,0 z"
         style="fill:#0080ff;fill-opacity:1;stroke:none"
         inkscape:connector-curvature="0" />
    </g>
    <g
       id="g3892"
       transform="translate(1008.5715,42.857142)"
       inkscape:export-filename="E:\Escritorio\Lie.png"
       inkscape:export-xdpi="90"
       inkscape:export-ydpi="90">
      <rect
         ry="100"
         rx="100"
         y="378.07648"
         x="-808.57141"
         height="262.85715"
         width="400"
         id="rect3829"
         style="fill:#e9c6af;fill-opacity:1;stroke:none" />
      <path
         transform="translate(-12.857143,-2.8571429)"
         d="m -402.85715,408.07648 c 0,41.81584 -88.26386,75.71428 -197.14285,75.71428 -108.87899,0 -197.14285,-33.89844 -197.14285,-75.71428 0,-41.81585 88.26386,-75.71429 197.14285,-75.71429 108.87899,0 197.14285,33.89844 197.14285,75.71429 z"
         sodipodi:ry="75.714287"
         sodipodi:rx="197.14285"
         sodipodi:cy="408.07648"
         sodipodi:cx="-600"
         id="path3827"
         style="fill:#f4e3d7;fill-opacity:1;stroke:none"
         sodipodi:type="arc" />
      <rect
         y="308.07648"
         x="-718.57141"
         height="85.714287"
         width="11.428572"
         id="rect3831"
         style="fill:#00d455;fill-opacity:1;stroke:none" />
      <rect
         style="fill:#00d455;fill-opacity:1;stroke:none"
         id="rect3833"
         width="11.428572"
         height="85.714287"
         x="-654.28571"
         y="285.21933" />
      <rect
         y="339.50504"
         x="-608.57141"
         height="85.714287"
         width="11.428572"
         id="rect3835"
         style="fill:#00d455;fill-opacity:1;stroke:none" />
      <rect
         style="fill:#00d455;fill-opacity:1;stroke:none"
         id="rect3856"
         width="11.428572"
         height="85.714287"
         x="-560"
         y="309.50504" />
      <rect
         y="293.79077"
         x="-512.85712"
         height="85.714287"
         width="11.428572"
         id="rect3858"
         style="fill:#00d455;fill-opacity:1;stroke:none" />
      <g
         id="g3864">
        <path
           style="fill:#ff0000;stroke:none"
           d="m -713.07605,289.08799 c 0,0 -16.99964,9.30932 -7.28556,19.42814 9.71407,10.11884 14.97586,2.83328 14.97586,2.83328 0,0 2.42852,-1.61901 3.23802,-2.83328 0.80951,-1.21425 -10.52357,-5.66654 -10.92832,-19.42814 z"
           id="path3860"
           inkscape:connector-curvature="0" />
        <path
           inkscape:connector-curvature="0"
           id="path3862"
           d="m -713.24877,300.8737 c 0,0 -7.85845,4.88506 -3.36791,10.1949 4.49054,5.30986 6.92291,1.48676 6.92291,1.48676 0,0 1.12264,-0.84957 1.49685,-1.48676 0.37421,-0.63717 -4.86475,-2.97351 -5.05185,-10.1949 z"
           style="fill:#ffff00;stroke:none" />
      </g>
      <g
         transform="matrix(-1,0,0,1,-1361.8947,-21.428571)"
         id="g3868">
        <path
           inkscape:connector-curvature="0"
           id="path3870"
           d="m -713.07605,289.08799 c 0,0 -16.99964,9.30932 -7.28556,19.42814 9.71407,10.11884 14.97586,2.83328 14.97586,2.83328 0,0 2.42852,-1.61901 3.23802,-2.83328 0.80951,-1.21425 -10.52357,-5.66654 -10.92832,-19.42814 z"
           style="fill:#ff0000;stroke:none" />
        <path
           style="fill:#ffff00;stroke:none"
           d="m -713.24877,300.8737 c 0,0 -7.85845,4.88506 -3.36791,10.1949 4.49054,5.30986 6.92291,1.48676 6.92291,1.48676 0,0 1.12264,-0.84957 1.49685,-1.48676 0.37421,-0.63717 -4.86475,-2.97351 -5.05185,-10.1949 z"
           id="path3872"
           inkscape:connector-curvature="0" />
      </g>
      <g
         id="g3874"
         transform="matrix(-1,0,0,1,-1314.3947,29.642858)">
        <path
           style="fill:#ff0000;stroke:none"
           d="m -713.07605,289.08799 c 0,0 -16.99964,9.30932 -7.28556,19.42814 9.71407,10.11884 14.97586,2.83328 14.97586,2.83328 0,0 2.42852,-1.61901 3.23802,-2.83328 0.80951,-1.21425 -10.52357,-5.66654 -10.92832,-19.42814 z"
           id="path3876"
           inkscape:connector-curvature="0" />
        <path
           inkscape:connector-curvature="0"
           id="path3878"
           d="m -713.24877,300.8737 c 0,0 -7.85845,4.88506 -3.36791,10.1949 4.49054,5.30986 6.92291,1.48676 6.92291,1.48676 0,0 1.12264,-0.84957 1.49685,-1.48676 0.37421,-0.63717 -4.86475,-2.97351 -5.05185,-10.1949 z"
           style="fill:#ffff00;stroke:none" />
      </g>
      <g
         transform="translate(156.42858,2.5000008)"
         id="g3880">
        <path
           inkscape:connector-curvature="0"
           id="path3882"
           d="m -713.07605,289.08799 c 0,0 -16.99964,9.30932 -7.28556,19.42814 9.71407,10.11884 14.97586,2.83328 14.97586,2.83328 0,0 2.42852,-1.61901 3.23802,-2.83328 0.80951,-1.21425 -10.52357,-5.66654 -10.92832,-19.42814 z"
           style="fill:#ff0000;stroke:none" />
        <path
           style="fill:#ffff00;stroke:none"
           d="m -713.24877,300.8737 c 0,0 -7.85845,4.88506 -3.36791,10.1949 4.49054,5.30986 6.92291,1.48676 6.92291,1.48676 0,0 1.12264,-0.84957 1.49685,-1.48676 0.37421,-0.63717 -4.86475,-2.97351 -5.05185,-10.1949 z"
           id="path3884"
           inkscape:connector-curvature="0" />
      </g>
      <g
         id="g3886"
         transform="translate(202.85715,-14.285714)">
        <path
           style="fill:#ff0000;stroke:none"
           d="m -713.07605,289.08799 c 0,0 -16.99964,9.30932 -7.28556,19.42814 9.71407,10.11884 14.97586,2.83328 14.97586,2.83328 0,0 2.42852,-1.61901 3.23802,-2.83328 0.80951,-1.21425 -10.52357,-5.66654 -10.92832,-19.42814 z"
           id="path3888"
           inkscape:connector-curvature="0" />
        <path
           inkscape:connector-curvature="0"
           id="path3890"
           d="m -713.24877,300.8737 c 0,0 -7.85845,4.88506 -3.36791,10.1949 4.49054,5.30986 6.92291,1.48676 6.92291,1.48676 0,0 1.12264,-0.84957 1.49685,-1.48676 0.37421,-0.63717 -4.86475,-2.97351 -5.05185,-10.1949 z"
           style="fill:#ffff00;stroke:none" />
      </g>
    </g>
    <g
       id="g3964"
       style="opacity:0.69"
       inkscape:export-filename="E:\Escritorio\Lie.png"
       inkscape:export-xdpi="90"
       inkscape:export-ydpi="90">
      <g
         id="g3916">
        <rect
           style="fill:#80b3ff;fill-opacity:1;stroke:none"
           id="rect3774"
           width="61.619305"
           height="61.619305"
           x="-563.99829"
           y="412.24234"
           transform="scale(-1,1)" />
        <rect
           y="412.24234"
           x="-410.5336"
           height="61.619305"
           width="61.619305"
           id="rect3778"
           style="fill:#80b3ff;fill-opacity:1;stroke:none"
           transform="scale(-1,1)" />
        <rect
           style="fill:#80b3ff;fill-opacity:1;stroke:none"
           id="rect3780"
           width="61.619305"
           height="61.619305"
           x="-487.26593"
           y="412.24234"
           transform="scale(-1,1)" />
        <rect
           y="412.24234"
           x="-333.80127"
           height="61.619305"
           width="61.619305"
           id="rect3782"
           style="fill:#80b3ff;fill-opacity:1;stroke:none"
           transform="scale(-1,1)" />
        <rect
           style="fill:#80b3ff;fill-opacity:1;stroke:none"
           id="rect3784"
           width="61.619305"
           height="61.619305"
           x="-257.06897"
           y="412.24234"
           transform="scale(-1,1)" />
      </g>
      <g
         id="g3923">
        <rect
           y="497.95663"
           x="-589.57574"
           height="61.619305"
           width="61.619305"
           id="rect3807"
           style="fill:#80b3ff;fill-opacity:1;stroke:none"
           transform="scale(-1,1)" />
        <rect
           style="fill:#80b3ff;fill-opacity:1;stroke:none"
           id="rect3809"
           width="61.619305"
           height="61.619305"
           x="-436.11105"
           y="497.95663"
           transform="scale(-1,1)" />
        <rect
           y="497.95663"
           x="-512.84338"
           height="61.619305"
           width="61.619305"
           id="rect3811"
           style="fill:#80b3ff;fill-opacity:1;stroke:none"
           transform="scale(-1,1)" />
        <rect
           style="fill:#80b3ff;fill-opacity:1;stroke:none"
           id="rect3813"
           width="61.619305"
           height="61.619305"
           x="-359.37872"
           y="497.95663"
           transform="scale(-1,1)" />
        <rect
           y="497.95663"
           x="-282.64639"
           height="61.619305"
           width="61.619305"
           id="rect3815"
           style="fill:#80b3ff;fill-opacity:1;stroke:none"
           transform="scale(-1,1)" />
      </g>
      <g
         id="g3930">
        <rect
           style="fill:#80b3ff;fill-opacity:1;stroke:none"
           id="rect3817"
           width="61.619305"
           height="61.619305"
           x="-615.1532"
           y="586.52808"
           transform="scale(-1,1)" />
        <rect
           y="586.52808"
           x="-461.68848"
           height="61.619305"
           width="61.619305"
           id="rect3819"
           style="fill:#80b3ff;fill-opacity:1;stroke:none"
           transform="scale(-1,1)" />
        <rect
           style="fill:#80b3ff;fill-opacity:1;stroke:none"
           id="rect3821"
           width="61.619305"
           height="61.619305"
           x="-538.42084"
           y="586.52808"
           transform="scale(-1,1)" />
        <rect
           y="586.52808"
           x="-384.95615"
           height="61.619305"
           width="61.619305"
           id="rect3823"
           style="fill:#80b3ff;fill-opacity:1;stroke:none"
           transform="scale(-1,1)" />
        <rect
           style="fill:#80b3ff;fill-opacity:1;stroke:none"
           id="rect3825"
           width="61.619305"
           height="61.619305"
           x="-308.22382"
           y="586.52808"
           transform="scale(-1,1)" />
      </g>
    </g>
  </g>
</svg>
